<svg xmlns="http://www.w3.org/2000/svg" width="320" height="180" viewBox="0 0 320 180" role="img"><title>A rolling circle&apos;s trace</title><defs><clipPath id="plot"><rect width="320" height="180"/></clipPath></defs><rect width="320" height="180" fill="#f8fafc"/><g clip-path="url(#plot)"><line x1="11.852" y1="0" x2="11.852" y2="180" stroke="#e2e8f0"/><line x1="59.259" y1="0" x2="59.259" y2="180" stroke="#e2e8f0"/><line x1="106.667" y1="0" x2="106.667" y2="180" stroke="#e2e8f0"/><line x1="154.074" y1="0" x2="154.074" y2="180" stroke="#e2e8f0"/><line x1="201.481" y1="0" x2="201.481" y2="180" stroke="#e2e8f0"/><line x1="248.889" y1="0" x2="248.889" y2="180" stroke="#e2e8f0"/><line x1="296.296" y1="0" x2="296.296" y2="180" stroke="#e2e8f0"/><line x1="0" y1="160.714" x2="320" y2="160.714" stroke="#e2e8f0"/><line x1="0" y1="128.571" x2="320" y2="128.571" stroke="#e2e8f0"/><line x1="0" y1="96.429" x2="320" y2="96.429" stroke="#e2e8f0"/><line x1="0" y1="64.286" x2="320" y2="64.286" stroke="#e2e8f0"/><line x1="0" y1="32.143" x2="320" y2="32.143" stroke="#e2e8f0"/><line x1="0" y1="0" x2="320" y2="0" stroke="#e2e8f0"/><line x1="0" y1="160.714" x2="320" y2="160.714" stroke="#94a3b8"/><line x1="11.852" y1="0" x2="11.852" y2="180" stroke="#94a3b8"/><path d="M11.852,160.714 L11.907,158.846 L12.293,153.351 L13.318,144.547 L15.257,132.947 L18.33,119.225 L22.691,104.177 L35.515,73.633 L43.898,59.91 L53.416,48.31 L63.847,39.506 L74.918,34.011 L86.319,32.143 L97.72,34.011 L108.791,39.506 L119.222,48.31 L128.74,59.91 L137.124,73.633 L149.948,104.177 L154.309,119.225 L157.381,132.947 L159.32,144.547 L160.346,153.351 L160.731,158.846 L160.787,160.714 L160.842,158.846 L161.227,153.351 L162.253,144.547 L164.192,132.947 L167.265,119.225 L171.625,104.177 L184.449,73.633 L192.833,59.91 L202.351,48.31 L212.782,39.506 L223.853,34.011 L235.254,32.143 L246.655,34.011 L257.726,39.506 L268.157,48.31 L277.675,59.91 L286.059,73.633 L298.883,104.177 L303.243,119.225 L306.316,132.947 L308.255,144.547 L309.281,153.351 L309.666,158.846 L309.721,160.714" fill="none" stroke="#2563eb" stroke-width="2" stroke-linejoin="round"/></g></svg>